<svg xmlns="http://www.w3.org/2000/svg" width="102" height="62" fill="none" viewBox="0 0 102 62">
  <path fill="#E05100" d="M52.632 20.8a1.727 1.727 0 0 0-1.18.517l-8.969 8.942-5.525-5.508c-1.547-1.612-4.046.877-2.431 2.42l6.742 6.726c.67.67 1.758.67 2.431 0L53.883 23.74c1.122-1.088.296-2.941-1.248-2.941h-.003ZM1.7 34.4h10.2c.942 0 1.7.758 1.7 1.7s-.758 1.7-1.7 1.7H1.7c-.942 0-1.7-.758-1.7-1.7s.758-1.7 1.7-1.7Zm0-13.6h10.2c.942 0 1.7.758 1.7 1.7s-.758 1.7-1.7 1.7H1.7c-.942 0-1.7-.758-1.7-1.7s.758-1.7 1.7-1.7Zm0-13.6h10.2c.942 0 1.7.758 1.7 1.7s-.758 1.7-1.7 1.7H1.7C.758 10.6 0 9.842 0 8.9s.758-1.7 1.7-1.7Zm81.6 37.4c-4.675 0-8.5 3.825-8.5 8.5s3.825 8.5 8.5 8.5 8.5-3.825 8.5-8.5-3.825-8.5-8.5-8.5Zm0 3.4c2.836 0 5.1 2.264 5.1 5.1 0 2.835-2.264 5.1-5.1 5.1a5.076 5.076 0 0 1-5.1-5.1c0-2.836 2.264-5.1 5.1-5.1Zm-44.2-3.4c-4.675 0-8.5 3.825-8.5 8.5s3.825 8.5 8.5 8.5 8.5-3.825 8.5-8.5-3.825-8.5-8.5-8.5Zm0 3.4c2.836 0 5.1 2.264 5.1 5.1 0 2.835-2.264 5.1-5.1 5.1a5.076 5.076 0 0 1-5.1-5.1c0-2.836 2.264-5.1 5.1-5.1ZM22.1.4C19.305.4 17 2.705 17 5.5v37.4c0 2.795 2.305 5.1 5.1 5.1h6.8c2.298.034 2.298-3.434 0-3.4h-6.8c-.972 0-1.7-.728-1.7-1.7V5.5c0-.973.728-1.7 1.7-1.7h44.2c.972 0 1.7.728 1.7 1.7v39.1H49.3c-2.244 0-2.203 3.434 0 3.4h23.8c2.244 0 2.224-3.4 0-3.4h-1.7V14h14.372L98.6 34.046V42.9c0 .972-.728 1.7-1.7 1.7h-3.4c-2.224 0-2.224 3.4 0 3.4h3.4c2.795 0 5.1-2.305 5.1-5.1v-9.35c0-.323-.092-.646-.265-.918l-13.6-21.25A1.702 1.702 0 0 0 86.7 10.6H71.4V5.5c0-2.795-2.305-5.1-5.1-5.1H22.1Z"/>
</svg>
