<svg xmlns="http://www.w3.org/2000/svg" width="100" height="66" fill="none" viewBox="0 0 100 66">
  <path fill="#E05100" d="M18.883.167c-2.248 0-2.266 3.467 0 3.433h75.534c.982 0 1.716.735 1.716 1.716V49.95c0 2.266 3.434 2.266 3.434 0V5.316c0-2.822-2.328-5.15-5.15-5.15H18.883Zm-6.866 6.866c-2.246 0-2.246 3.433 0 3.433H87.55c.982 0 1.717.735 1.717 1.717v44.633c0 2.284 3.467 2.267 3.433 0V12.183c0-2.822-2.328-5.15-5.15-5.15H12.017ZM5.15 13.9C2.328 13.9 0 16.228 0 19.05v41.2c0 2.822 2.328 5.15 5.15 5.15h75.533c2.822 0 5.15-2.328 5.15-5.15v-41.2c0-2.822-2.328-5.15-5.15-5.15H5.15Zm0 3.433h75.533c.982 0 1.717.735 1.717 1.717v41.2c0 .982-.735 1.717-1.717 1.717H5.15c-.982 0-1.717-.735-1.717-1.717v-41.2c0-.982.735-1.717 1.717-1.717Zm3.433 3.434c-.947 0-1.716.769-1.716 1.716v6.867c0 2.307 3.433 2.252 3.433 0V24.2h5.15c2.307 0 2.252-3.433 0-3.433H8.583Zm34.334 0c-10.41 0-18.884 8.473-18.884 18.883 0 10.41 8.474 18.883 18.884 18.883S61.8 50.06 61.8 39.65c0-10.41-8.473-18.883-18.883-18.883Zm27.466 0c-2.252 0-2.307 3.433 0 3.433h5.15v5.15c0 2.252 3.434 2.307 3.434 0v-6.867c0-.947-.77-1.716-1.717-1.716h-6.867ZM42.917 24.2a15.43 15.43 0 0 1 15.45 15.45 15.43 15.43 0 0 1-15.45 15.45 15.43 15.43 0 0 1-15.45-15.45 15.43 15.43 0 0 1 15.45-15.45Zm0 3.433c-.951 0-1.717.766-1.717 1.717v2.04c-1.985.72-3.433 2.609-3.433 4.827 0 2.815 2.334 5.15 5.15 5.15.961 0 1.716.727 1.716 1.716s-.755 1.717-1.716 1.717h-3.434c-1.16-.017-1.716.851-1.716 1.717 0 .865.556 1.733 1.716 1.716H41.2v1.717c0 .95.766 1.716 1.717 1.716.95 0 1.716-.765 1.716-1.716v-2.04c1.985-.72 3.434-2.609 3.434-4.827 0-2.815-2.335-5.15-5.15-5.15-.962 0-1.717-.728-1.717-1.716 0-.99.755-1.717 1.717-1.717h3.433c1.16.017 1.717-.852 1.717-1.717 0-.865-.556-1.734-1.717-1.716h-1.717V29.35c0-.951-.765-1.717-1.716-1.717ZM8.583 48.24c-.858-.007-1.716.556-1.716 1.71v6.866c0 .948.769 1.717 1.716 1.717h6.867c2.252 0 2.307-3.433 0-3.433H10.3v-5.15c0-1.126-.858-1.703-1.717-1.71Zm68.667 0c-.858.007-1.717.584-1.717 1.71v5.15h-5.15c-2.307 0-2.252 3.433 0 3.433h6.867c.948 0 1.717-.769 1.717-1.717V49.95c0-1.154-.859-1.717-1.717-1.71Z"/>
</svg>
