<svg xmlns="http://www.w3.org/2000/svg" width="49" height="53" fill="none" viewBox="0 0 49 53">
  <path fill="#fff" d="m15.766 26.36-1.141 8.23a1.69 1.69 0 0 0 2.413 1.752l7.45-3.627 7.474 3.628a1.691 1.691 0 0 0 2.413-1.755l-1.148-8.206 5.76-5.986a1.691 1.691 0 0 0-.922-2.837l-8.16-1.444-3.914-7.328a1.69 1.69 0 0 0-2.982 0l-3.895 7.314-8.18 1.458a1.692 1.692 0 0 0-.92 2.837l5.752 5.964Zm3.652-8.567a1.683 1.683 0 0 0 1.192-.869l3.865-7.329.758-.404-.757.405 3.914 7.328a1.682 1.682 0 0 0 1.194.869l8.165 1.411-5.76 5.987a1.681 1.681 0 0 0-.457 1.405l1.18 8.2-7.473-3.628a1.68 1.68 0 0 0-1.477 0l-7.435 3.657 1.142-8.231a1.683 1.683 0 0 0-.457-1.403l-5.775-5.94 8.18-1.458Z"/>
  <path fill="#fff" d="M45.383 27.186c.397-1.63.599-3.304.601-4.983a21.484 21.484 0 0 0-42.968 0 21.15 21.15 0 0 0 .602 4.983 9.434 9.434 0 0 0 9.71 15.843v8.393a.858.858 0 0 0 1 .848L24.5 50.574l10.172 1.696a.86.86 0 0 0 1-.848v-8.393a9.435 9.435 0 0 0 9.71-15.843ZM24.5 2.438a19.788 19.788 0 0 1 19.766 19.765 19.441 19.441 0 0 1-.668 5.067 19.837 19.837 0 0 1-9.215 12.047h-.002l-.006.005c-.419.247-.86.47-1.237.654a19.72 19.72 0 0 1-17.274.001 19.445 19.445 0 0 1-2.889-1.722 19.835 19.835 0 0 1-7.574-10.99 19.4 19.4 0 0 1-.667-5.062A19.788 19.788 0 0 1 24.5 2.438ZM9.89 41.968a7.734 7.734 0 0 1-5.746-12.91c.018.054.043.104.06.157.183.527.38 1.049.603 1.558l.06.13c.226.507.47 1.005.735 1.494.024.043.045.087.069.13.27.49.562.968.868 1.435l.142.217c.306.454.629.896.968 1.326.055.07.111.138.167.207.35.432.714.853 1.097 1.258.041.044.084.085.125.129.81.842 1.686 1.616 2.62 2.316l.166.125c.445.326.904.634 1.375.924.044.027.085.06.13.087v.612a7.747 7.747 0 0 1-3.438.806Zm5.157-.291v-.187l.06.03a21.175 21.175 0 0 0 8.534 2.144v5.311l-8.594 1.432v-8.73Zm18.906 8.73-8.594-1.432v-5.311a21.17 21.17 0 0 0 8.594-2.174v8.917Zm5.156-8.438a7.75 7.75 0 0 1-3.437-.806v-.612c.042-.026.08-.057.123-.083.471-.291.93-.6 1.376-.925l.178-.134c.463-.347.915-.708 1.347-1.09l.007-.007c.435-.384.85-.788 1.25-1.205l.138-.14c.38-.403.743-.822 1.091-1.252l.17-.21c.34-.432.663-.875.97-1.33l.134-.206c.31-.472.606-.954.878-1.45l.053-.1c.274-.505.527-1.021.76-1.547.014-.03.028-.057.04-.086.228-.521.43-1.053.616-1.592.016-.046.037-.09.052-.135a7.733 7.733 0 0 1-5.746 12.91Z"/>
</svg>
