<svg xmlns="http://www.w3.org/2000/svg" width="86" height="90" fill="none" viewBox="0 0 86 90">
  <path fill="#E05100" d="M83.14 90a2.178 2.178 0 0 1-2.177-2.177c0-20.934-17.03-37.963-37.963-37.963-20.934 0-37.963 17.03-37.963 37.963a2.178 2.178 0 0 1-4.354 0C.683 64.488 19.667 45.505 43 45.505s42.317 18.983 42.317 42.318A2.178 2.178 0 0 1 83.14 90Z"/>
  <path fill="#E05100" d="M42.673 48.242c-13.3 0-24.12-10.82-24.12-24.122 0-13.3 10.82-24.12 24.12-24.12 13.301 0 24.122 10.82 24.122 24.12 0 13.301-10.82 24.122-24.122 24.122Zm0-43.887c-10.897 0-19.765 8.866-19.765 19.765 0 10.9 8.868 19.767 19.765 19.767 10.9 0 19.767-8.867 19.767-19.767 0-10.899-8.866-19.765-19.767-19.765Zm.678 76.104c-5.316 0-9.64-4.326-9.64-9.642s4.325-9.642 9.64-9.642c5.316 0 9.642 4.326 9.642 9.642s-4.326 9.642-9.642 9.642Zm0-14.929a5.292 5.292 0 0 0-5.285 5.287 5.292 5.292 0 0 0 5.285 5.287 5.293 5.293 0 0 0 5.287-5.287 5.293 5.293 0 0 0-5.287-5.287Z"/>
  <path fill="#E05100" d="M56.211 85.294a2.17 2.17 0 0 1-1.54-.638l-5.93-5.93a2.176 2.176 0 1 1 3.079-3.08l5.93 5.932a2.176 2.176 0 0 1-1.539 3.716Z"/>
</svg>
