<svg xmlns="http://www.w3.org/2000/svg" width="52" height="38" fill="none" viewBox="0 0 52 38">
  <path fill="#fff" d="M40 7.625h-8.75V1.5a.875.875 0 0 0-.875-.875h-24.5a.875.875 0 0 0 0 1.75h4.375v5.25H1.5a.875.875 0 0 0-.875.875v7a.875.875 0 0 0 .875.875h8.75v5.25H1.5a.875.875 0 0 0-.875.875v7a.875.875 0 0 0 .875.875h8.75v5.25H5.77a.875.875 0 0 0 0 1.75h24.605a.875.875 0 0 0 .875-.875v-6.125H40a.875.875 0 0 0 .875-.875v-7a.875.875 0 0 0-.875-.875h-8.75v-5.25H40a.875.875 0 0 0 .875-.875v-7A.875.875 0 0 0 40 7.625Zm-28-5.25h17.5v5.25H12v-5.25Zm-9.625 12.25v-5.25h17.5v5.25h-17.5Zm0 14v-5.25h17.5v5.25h-17.5Zm27.125 7H12v-5.25h17.5v5.25Zm9.625-7h-17.5v-5.25h17.5v5.25Zm-9.625-7H12v-5.25h17.5v5.25Zm9.625-7h-17.5v-5.25h17.5v5.25Zm-35.875 21H1.5a.875.875 0 0 0 0 1.75h1.75a.875.875 0 0 0 0-1.75ZM1.5 2.375h1.82a.875.875 0 0 0 0-1.75H1.5a.875.875 0 0 0 0 1.75Zm49 7a.875.875 0 0 0 .875-.875v-7A.875.875 0 0 0 50.5.625h-7.875a.875.875 0 0 0-.875.875v7a.875.875 0 0 0 .875.875h5.25v5.25h-5.25a.875.875 0 0 0-.875.875v7a.875.875 0 0 0 .875.875h5.25v5.25h-5.25a.875.875 0 0 0-.875.875v7a.875.875 0 0 0 .875.875H50.5a.875.875 0 0 0 .875-.875v-7a.875.875 0 0 0-.875-.875h-.875v-5.25h.875a.875.875 0 0 0 .875-.875v-7a.875.875 0 0 0-.875-.875h-.875v-5.25h.875Zm-.875 26.25H43.5v-5.25h6.125v5.25Zm-.875-14H43.5v-5.25h6.125v5.25h-.875ZM43.5 2.375h6.125v5.25H43.5v-5.25Z"/>
</svg>
